<!-- EmojiOne | www.emojione.com | CC-BY 4.0, for details see creativecommons.org/licenses/by/4.0/legalcode -->
<svg xmlns="http://www.w3.org/2000/svg" width="558.075" height="558.075" viewBox="141.907 18.602 558.075 558.075"><circle fill="#FFDD67" cx="420.945" cy="297.64" r="279.038"/><g fill="#FFF"><circle cx="281.426" cy="279.037" r="102.314"/><circle cx="560.463" cy="279.037" r="102.314"/></g><g fill="#494949"><path d="M458.15 251.134c-16.742-12.09-57.668-12.09-74.41 0-10.23-9.3-8.37-19.532-18.603-28.834 28.834-21.393 78.13-25.113 111.615 0-10.23 9.3-8.37 19.533-18.602 28.834"/><path d="M560.463 158.122c-66.97 0-120.916 53.947-120.916 120.916s53.947 120.916 120.916 120.916c66.97 0 120.917-53.947 120.917-120.916s-53.947-120.916-120.917-120.916m0 213.93c-51.156 0-93.013-41.856-93.013-93.014s41.856-93.013 93.013-93.013c51.157 0 93.013 41.855 93.013 93.013s-41.856 93.013-93.013 93.013M281.426 158.122c-66.97 0-120.916 53.947-120.916 120.916s53.947 120.916 120.916 120.916 120.916-53.947 120.916-120.916-53.947-120.916-120.916-120.916m0 213.93c-51.157 0-93.013-41.856-93.013-93.014s41.855-93.013 93.013-93.013 93.013 41.855 93.013 93.013-41.857 93.013-93.014 93.013"/></g><g fill="#664E27"><ellipse cx="309.329" cy="283.689" rx="37.205" ry="46.506"/><ellipse cx="532.56" cy="283.689" rx="37.205" ry="46.506"/><path d="M371.648 477.155c53.947 13.95 111.615 3.72 157.19-27.904 11.162-8.37-10.23-37.204-21.392-29.763-29.765 21.393-78.13 35.345-127.428 22.323-12.09-2.79-22.32 31.624-8.37 35.345"/></g><g fill="#917524"><path d="M618.13 146.03c-29.763-25.113-69.76-36.275-108.823-28.834-5.58.93-10.23-18.603-3.72-20.463 44.645-8.37 91.15 4.65 125.565 33.484 5.582 4.65-9.3 19.533-13.02 15.813M332.583 115.336c-39.065-6.51-79.06 3.72-108.825 28.834-3.72 3.72-18.603-11.162-13.02-15.812 34.413-29.764 80.92-41.855 125.565-33.484 6.512 1.86 1.86 21.39-3.72 20.462"/></g></svg>